# xmcd CD database file
#
# Track frame offsets:
#	150
#	22760
#	52071
#	81221
#	118804
#	142108
#	173602
#	210438
#
# Disc length: 3116 seconds
#
# Revision: 0
# Processed by: cddbd v1.5.1PL0 Copyright (c) Steve Scherf et al.
# Submitted via: CDex 1.51
#
DISCID=670c2a08
DTITLE=Daniel Salazar - Mosaico
DYEAR=1900
DGENRE=Salsa
TTITLE0=Tierra Mestiza
TTITLE1=Mosaico
TTITLE2=Corazon
TTITLE3=Vientos Del Desierto
TTITLE4=Caballo Viejo
TTITLE5=Leyenda
TTITLE6=Descarga
TTITLE7=Etude Fragile
EXTD=
EXTT0=
EXTT1=
EXTT2=
EXTT3=
EXTT4=
EXTT5=
EXTT6=
EXTT7=
PLAYORDER=
